<?xml version="1.0" encoding="UTF-8"?>
<svg id="Layer_1" data-name="Layer 1" xmlns="http://www.w3.org/2000/svg" viewBox="0 0 48 48">
  <defs>
    <style>
      .cls-1 {
        stroke-width: 0px;
      }
    </style>
  </defs>
  <path class="cls-1" d="M43,30v5c0,.17-.02.33-.06.48-.81-.72-1.82-1.21-2.94-1.39v-6.09h1c1.1,0,2,.9,2,2Z"/>
  <path class="cls-1" d="M8,28v6.09c-1.12.18-2.13.67-2.94,1.39-.04-.15-.06-.31-.06-.48v-5c0-1.1.9-2,2-2h1Z"/>
  <path class="cls-1" d="M34,19h-7c0,1.65-1.35,3-3,3s-3-1.35-3-3h-7c-1.46,0-2.82-.4-4-1.08v16.08h5v-5c0-1.654,1.346-3,3-3h12c1.654,0,3,1.346,3,3v5h5v-16.08c-1.18.68-2.54,1.08-4,1.08Z"/>
  <path class="cls-1" d="M30,28h-12c-.552,0-1,.449-1,1v5h14v-5c0-.551-.448-1-1-1Z"/>
  <path class="cls-1" d="M36,6h-8c0-2.21-1.79-4-4-4s-4,1.79-4,4h-8c-2.21,0-4,1.79-4,4v1c0,3.31,2.69,6,6,6h7.18c.41-1.16,1.52-2,2.82-2s2.41.84,2.82,2h7.18c3.31,0,6-2.69,6-6v-1c0-2.21-1.79-4-4-4ZM22,6c0-1.1.9-2,2-2s2,.9,2,2h-4Z"/>
  <path class="cls-1" d="M25,19c0,.55-.45,1-1,1s-1-.45-1-1v-1c0-.55.45-1,1-1s1,.45,1,1v1Z"/>
  <rect class="cls-1" x="14" y="36" width="20" height="10"/>
  <path class="cls-1" d="M12,36h-3c-2.209,0-4,1.791-4,4v2c0,2.209,1.791,4,4,4h3v-10Z"/>
  <path class="cls-1" d="M39,36h-3v10h3c2.209,0,4-1.791,4-4v-2c0-2.209-1.791-4-4-4Z"/>
</svg>